<?xml version="1.0" encoding="utf-8"?>
<!-- Generator: Adobe Illustrator 22.1.0, SVG Export Plug-In . SVG Version: 6.00 Build 0)  -->
<!DOCTYPE svg PUBLIC "-//W3C//DTD SVG 1.1//EN" "http://www.w3.org/Graphics/SVG/1.1/DTD/svg11.dtd">
<svg version="1.1" id="iOS-10-Keyboard_Image" xmlns="http://www.w3.org/2000/svg" xmlns:xlink="http://www.w3.org/1999/xlink"
	 x="0px" y="0px" viewBox="0 0 59.7 122.5" style="enable-background:new 0 0 59.7 122.5;" xml:space="preserve">
<style type="text/css">
	.st0{fill:#FFDD31;}
	.st1{fill:#828B9A;}
</style>
<circle class="st0" cx="29.8" cy="92.3" r="28.4"/>
<title>emoji-icon</title>
<path class="st1" d="M29.5,0c0.5,0,1,0,1.5,0l3.2,0.2c0.4,0,0.8,0.1,1.2,0.2C36.2,0.7,37.1,0.9,38,1c0.4,0.1,0.8,0.2,1.1,0.4
	c0.5,0.2,1,0.4,1.5,0.6c0.6,0.2,1.1,0.4,1.6,0.7l0.1,0.1c1,0.4,2,0.9,2.9,1.5C46.6,5,47.8,5.9,49,6.8c0.6,0.5,1.2,1.1,1.8,1.6
	c0.7,0.7,1.5,1.5,2.1,2.3c0.5,0.6,1,1.3,1.4,2c0.3,0.4,0.6,0.8,0.8,1.3c0.4,0.6,0.7,1.2,1,1.8s0.7,1.4,1.1,2.1
	c0.2,0.4,0.3,0.7,0.5,1.1c0.2,0.8,0.6,1.5,0.8,2.3c0.2,0.6,0.3,1.2,0.5,1.8c0.1,0.4,0.2,0.7,0.3,1.1c0.2,0.5,0.3,1.1,0.3,1.6
	c0,0.9,0.1,1.7,0.1,2.6c0,0.6,0,1.2,0,1.8c0,0.8,0,1.5,0,2.3c0,1.2-0.1,2.5-0.4,3.7c-0.2,0.7-0.3,1.4-0.5,2.1
	c-0.1,0.3-0.2,0.6-0.3,0.8c-0.3,0.8-0.6,1.7-0.9,2.6c-0.1,0.2-0.2,0.4-0.3,0.7c-0.2,0.4-0.3,0.8-0.5,1.1l-0.7,1.4
	c-0.1,0.2-0.2,0.3-0.3,0.4c-0.5,0.9-1,1.8-1.7,2.6c-0.5,0.7-1.1,1.4-1.7,2.1c-0.8,0.9-1.6,1.7-2.4,2.5c-0.4,0.4-0.9,0.8-1.3,1.2
	c-0.7,0.6-1.5,1.2-2.4,1.7c-0.7,0.4-1.3,0.8-2,1.2c-1,0.5-1.9,1-2.9,1.5c-0.3,0.1-0.6,0.2-0.9,0.3c-0.3,0.1-0.6,0.2-0.9,0.3
	c-0.2,0.1-0.4,0.2-0.6,0.2c-0.9,0.2-1.7,0.4-2.6,0.7c-0.2,0-0.4,0.1-0.6,0.2c-0.8,0.3-1.7,0.5-2.6,0.4c-2,0-4,0-5.9,0
	c-1,0-2.1-0.1-3-0.5c-0.8-0.2-1.6-0.4-2.4-0.6c-0.7-0.1-1.4-0.4-2-0.7c0,0-0.1,0-0.1-0.1c-0.9-0.3-1.8-0.7-2.7-1.2
	c-1.5-0.7-3-1.6-4.3-2.5c-0.9-0.6-1.7-1.3-2.5-2c-0.8-0.8-1.6-1.5-2.4-2.3c-0.5-0.5-0.9-1.1-1.3-1.6c-0.5-0.6-1-1.3-1.4-2
	c-0.1-0.2-0.3-0.4-0.4-0.6c-0.6-0.8-1.1-1.7-1.5-2.6C3,43,2.8,42.6,2.6,42.3C2.3,41.7,2,41,1.9,40.4c-0.1-0.4-0.2-0.7-0.4-1
	c-0.2-0.4-0.3-0.8-0.4-1.2c-0.1-0.5-0.2-1-0.4-1.5c-0.1-0.1-0.1-0.3-0.1-0.4c-0.1-0.5-0.2-1-0.3-1.5s-0.2-0.9-0.2-1.4
	C0.1,32.3,0,31.2,0,30c0-1.6,0.1-3.3,0.3-4.9c0.2-0.8,0.4-1.6,0.6-2.4l0.2-0.9l0.3-1.2c0-0.1,0.1-0.2,0.1-0.3
	c0.3-0.6,0.6-1.2,0.8-1.9c0.2-0.4,0.3-0.7,0.5-1.1s0.3-0.6,0.4-1C3.5,16,3.7,15.5,4,15c0.5-0.8,0.9-1.6,1.5-2.3
	c0.7-1.1,1.6-2.1,2.5-3.1C8.8,8.8,9.6,8,10.5,7.2c0.7-0.6,1.4-1.1,2.1-1.6c0.7-0.5,1.5-0.9,2.2-1.4c0.3-0.2,0.7-0.4,1-0.6
	c0.4-0.3,0.9-0.5,1.4-0.7c0.4-0.1,0.7-0.4,1.1-0.5c0.9-0.4,1.7-0.7,2.6-1c0.3-0.1,0.6-0.2,0.9-0.2c0.9-0.2,1.9-0.4,2.8-0.7
	c0.6-0.2,1.2-0.3,1.8-0.3C27.4,0.1,28.5,0,29.5,0z M55.9,30.3c0-1.1,0-2.2-0.2-3.3c-0.1-0.6-0.1-1.2-0.2-1.8c0-0.5-0.1-1-0.2-1.5
	c-0.2-0.7-0.4-1.4-0.7-2.1c-0.3-1-0.7-1.9-1.1-2.8c-0.1-0.2-0.2-0.4-0.3-0.6c-0.2-0.4-0.5-0.8-0.7-1.2c-0.5-1-1-1.9-1.7-2.7
	c-1-1.3-2.1-2.5-3.3-3.6s-2.4-2.1-3.8-3l-1.7-1c-1.3-0.8-2.8-1.4-4.3-1.7c-0.3-0.1-0.7-0.2-1-0.3c-0.5-0.3-1.1-0.4-1.7-0.5
	c-0.9-0.2-2-0.4-3.2-0.4c-0.8,0-1.7-0.1-2.5-0.1c-1.7,0.1-3.5,0.3-5.2,0.5c-0.4,0.1-0.7,0.1-1,0.3C22.5,4.7,22,4.8,21.4,5
	s-0.9,0.3-1.3,0.5s-0.8,0.4-1.2,0.6C18,6.5,17.1,7,16.2,7.5c-0.5,0.3-0.9,0.6-1.4,0.9c-0.9,0.6-1.7,1.3-2.5,2c-1.1,1-2,2.1-2.9,3.2
	S7.7,15.9,7,17.2c-0.3,0.6-0.6,1.2-0.9,1.8c-0.2,0.4-0.3,0.8-0.5,1.1S5.4,21,5.2,21.4C5,22,4.8,22.6,4.7,23.2
	c-0.2,0.5-0.3,1-0.4,1.6c-0.1,0.7-0.2,1.3-0.2,2s-0.1,1.4-0.2,2s0,1.3,0,1.9c0,0.9,0.1,1.8,0.2,2.7c0.1,1.3,0.3,2.6,0.8,3.9
	c0.1,0.3,0.2,0.7,0.3,1c0,0.2,0.1,0.4,0.2,0.6c0.2,0.5,0.4,1,0.6,1.5s0.4,1,0.7,1.6c0.1,0.3,0.3,0.6,0.4,0.8
	c0.4,0.6,0.7,1.3,1.1,1.9s0.9,1.3,1.4,1.9c0.3,0.3,0.5,0.7,0.8,1c0.7,0.8,1.5,1.5,2.2,2.2c0.4,0.4,0.8,0.8,1.3,1.1
	c1.3,0.9,2.6,1.8,3.9,2.6c0.4,0.3,0.9,0.4,1.4,0.6c0.2,0,0.3,0.1,0.5,0.2c0.5,0.3,1,0.5,1.6,0.6c0.5,0.2,1.1,0.3,1.6,0.5
	c0.7,0.3,1.4,0.5,2.2,0.5c0.6,0,1.1,0.1,1.7,0.2c1.6,0.3,3.3,0.3,4.9,0.1c1.1-0.1,2.1-0.2,3.2-0.3c0.5,0,1-0.1,1.5-0.3
	s1-0.4,1.5-0.5c0.9-0.3,1.8-0.6,2.7-1s1.9-0.9,2.7-1.5c0.7-0.4,1.4-0.9,2.1-1.4c0.6-0.4,1.1-0.8,1.7-1.2c1-0.9,1.9-1.8,2.8-2.8
	c0.8-1,1.5-2.1,2.2-3.2c0.3-0.5,0.5-1,0.8-1.5c0.4-0.7,0.7-1.4,1-2.1c0.4-1,0.8-2,1-3c0.1-0.3,0.2-0.7,0.3-1s0.2-0.6,0.2-0.9
	c0-0.5,0-1,0.1-1.4s0.1-0.9,0.1-1.3c0.1-0.6,0.2-1.1,0.2-1.7C55.8,30.8,55.9,30.5,55.9,30.3z"/>
<path class="st1" d="M29.7,51c-1.4,0-2.9-0.1-4.3-0.4h-0.1c-1-0.3-2-0.6-3-1c-0.6-0.3-1.2-0.5-1.8-0.8c-0.9-0.4-1.8-0.9-2.6-1.5
	c-0.6-0.5-1.2-1-1.8-1.4L16,45.8c-0.7-0.7-1.3-1.3-2-2s-1-1.2-1.4-1.8c-0.2-0.3-0.4-0.6-0.5-0.9c-0.3-0.5-0.5-1-0.8-1.5
	c-0.1-0.1-0.1-0.3-0.2-0.4c-0.2-0.6-0.5-1.2-0.7-1.8c-0.3-0.7-0.5-1.5-0.6-2.2c-0.1-0.5,0-0.9,0.2-1.3c0.2-0.5,0.7-0.9,1.3-0.9
	c0.5,0,1,0,1.4,0c0.7,0.1,1.4,0.3,2,0.6c0.9,0.4,1.8,0.6,2.8,0.6c0.7,0,1.4,0.1,2,0.3c0.5,0.1,1.1,0.3,1.7,0.3
	c0.5,0.1,1,0.1,1.5,0.1l3.3,0.2c0.6,0,1.2,0.1,1.8,0.1c0.8,0,1.6,0,2.3,0c1.9,0,3.7-0.1,5.5-0.2c0.6,0,1.2,0,1.9-0.1
	c0.9,0,1.9-0.2,2.8-0.4c0.7-0.2,1.3-0.3,2-0.3c0.9,0,1.9-0.2,2.7-0.6c0.9-0.4,1.8-0.6,2.8-0.6c0.5,0,1.1,0.2,1.5,0.4
	c0.3,0.1,0.5,0.4,0.5,0.7c0,0.5,0,1,0,1.5c-0.1,0.6-0.2,1.2-0.5,1.7c-0.2,0.4-0.3,0.8-0.4,1.2c-0.4,1.1-1,2.2-1.6,3.2
	c-0.7,1-1.4,2-2.2,2.9c-0.5,0.6-1.1,1.1-1.7,1.6c-1.1,0.9-2.2,1.7-3.5,2.4C39,49.1,38,49.5,37.1,50c-0.4,0.2-0.8,0.3-1.3,0.3
	c-0.3,0-0.6,0.1-0.8,0.2c-0.8,0.3-1.6,0.5-2.4,0.5C31.7,51,30.7,51,29.7,51z M30.1,42.5c0.9,0,1.8-0.1,2.7-0.1c0.9,0,2-0.2,3-0.3
	c1.2-0.1,2.4-0.3,3.6-0.8c0.8-0.3,1.5-0.4,2.3-0.6c0.3-0.1,0.6-0.2,0.9-0.3s0.8-0.4,1.1-0.5c0.7-0.2,1.3-0.6,1.8-1.2
	c0.3-0.3,0.5-0.7,0.7-1.2s-0.2-1.1-0.7-1.2c-0.1,0-0.3,0-0.4,0c-0.2,0-0.5,0.1-0.7,0.2c-0.5,0.3-1,0.4-1.5,0.5l-1.3,0.2
	c-0.4,0.1-0.9,0.2-1.3,0.3c-1,0.3-2.1,0.5-3.1,0.6l-4.4,0.2c-0.6,0-1.2,0-1.8,0.1c-1.3,0.1-2.5,0.1-3.8,0l-3.5-0.2
	c-0.8,0-1.6-0.1-2.4-0.2c-0.6-0.1-1.3-0.2-1.9-0.4s-1.2-0.3-1.8-0.4c-0.8-0.1-1.5-0.3-2.2-0.7c-0.1,0-0.1-0.1-0.2-0.1
	c-0.3-0.1-0.7-0.1-1,0.1c-0.4,0.4-0.5,1-0.2,1.5c0.5,0.8,1.3,1.5,2.2,1.8c0.3,0.1,0.6,0.3,1,0.4s0.8,0.4,1.2,0.5
	c0.9,0.3,1.8,0.5,2.7,0.8c0.8,0.3,1.5,0.5,2.3,0.6c0.7,0.1,1.5,0.1,2.2,0.2C27.1,42.4,28.6,42.6,30.1,42.5L30.1,42.5z"/>
<path class="st1" d="M39.4,24.1c-0.8,0.1-1.5-0.2-2.1-0.7c-0.7-0.5-1.2-1.2-1.6-1.9c-0.1-0.3-0.2-0.6-0.2-1c0-0.5,0.1-1.1,0.3-1.6
	c0.1-0.2,0.2-0.4,0.4-0.5c0.5-0.4,1-0.9,1.6-1.2c0.2-0.1,0.5-0.2,0.7-0.2c0.6,0,1.2,0,1.8,0c0.3,0,0.6,0.1,0.8,0.4
	c0.4,0.3,0.8,0.7,1.2,1c0.5,0.5,0.8,1.1,0.8,1.8c0,0.3,0,0.6,0,0.9c0,0.4-0.1,0.7-0.3,1c-0.4,0.7-1,1.2-1.7,1.7
	c-0.4,0.2-0.8,0.4-1.3,0.4C39.7,24.1,39.5,24.1,39.4,24.1z"/>
<path class="st1" d="M20.5,24.1h-0.2c-0.6,0.1-1.3-0.2-1.7-0.6c-0.3-0.3-0.7-0.6-1-0.9c-0.5-0.4-0.7-1-0.7-1.7c0-0.4,0-0.8,0.1-1.2
	c0.1-0.5,0.3-1,0.6-1.3c0.4-0.4,0.8-0.7,1.2-1c0.3-0.2,0.6-0.3,1-0.4h1.3c0.5,0,0.9,0.2,1.2,0.5c0.4,0.4,0.9,0.7,1.3,1.1
	c0.3,0.3,0.5,0.6,0.5,1c0.2,0.7,0.1,1.5-0.2,2.2c-0.2,0.5-0.5,0.9-0.9,1.2c-0.3,0.3-0.6,0.5-0.9,0.8s-0.8,0.4-1.2,0.4
	C20.8,24.1,20.7,24.1,20.5,24.1L20.5,24.1z"/>
<path class="st1" d="M29.5,62.2c0.5,0,1,0,1.5,0l3.2,0.2c0.4,0,0.8,0.1,1.2,0.2c0.8,0.3,1.7,0.5,2.6,0.6c0.4,0.1,0.8,0.2,1.1,0.4
	c0.5,0.2,1,0.4,1.5,0.6c0.6,0.2,1.1,0.4,1.6,0.7l0.1,0.1c1,0.4,2,0.9,2.9,1.5c1.4,0.7,2.6,1.6,3.8,2.5c0.6,0.5,1.2,1.1,1.8,1.6
	c0.7,0.7,1.5,1.5,2.1,2.3c0.5,0.6,1,1.3,1.4,2c0.3,0.4,0.6,0.8,0.8,1.3c0.4,0.6,0.7,1.2,1,1.8s0.7,1.4,1.1,2.1
	c0.2,0.4,0.3,0.7,0.5,1.1c0.2,0.8,0.6,1.5,0.8,2.3c0.2,0.6,0.3,1.2,0.5,1.8c0.1,0.4,0.2,0.7,0.3,1.1c0.2,0.5,0.3,1.1,0.3,1.6
	c0,0.9,0.1,1.7,0.1,2.6c0,0.6,0,1.2,0,1.8c0,0.8,0,1.5,0,2.3c0,1.2-0.1,2.5-0.4,3.7c-0.2,0.7-0.3,1.4-0.5,2.1
	c-0.1,0.3-0.2,0.6-0.3,0.8c-0.3,0.8-0.6,1.7-0.9,2.6c-0.1,0.2-0.2,0.4-0.3,0.7c-0.2,0.4-0.3,0.8-0.5,1.1l-0.7,1.4
	c-0.1,0.2-0.2,0.3-0.3,0.4c-0.5,0.9-1,1.8-1.7,2.6c-0.5,0.7-1.1,1.4-1.7,2.1c-0.8,0.9-1.6,1.7-2.4,2.5c-0.4,0.4-0.9,0.8-1.3,1.2
	c-0.7,0.6-1.5,1.2-2.4,1.7c-0.7,0.4-1.3,0.8-2,1.2c-1,0.5-1.9,1-2.9,1.5c-0.3,0.1-0.6,0.2-0.9,0.3c-0.3,0.1-0.6,0.2-0.9,0.3
	c-0.2,0.1-0.4,0.2-0.6,0.2c-0.9,0.2-1.7,0.4-2.6,0.7c-0.2,0-0.4,0.1-0.6,0.2c-0.8,0.3-1.7,0.5-2.6,0.4c-2,0-4,0-5.9,0
	c-1,0-2.1-0.1-3-0.5c-0.8-0.2-1.6-0.4-2.4-0.6c-0.7-0.1-1.4-0.4-2-0.7c0,0-0.1,0-0.1-0.1c-0.9-0.3-1.8-0.7-2.7-1.2
	c-1.5-0.7-3-1.6-4.3-2.5c-0.9-0.6-1.7-1.3-2.5-2c-0.8-0.8-1.6-1.5-2.4-2.3c-0.5-0.5-0.9-1.1-1.3-1.6c-0.5-0.6-1-1.3-1.4-2
	c-0.1-0.2-0.3-0.4-0.4-0.6c-0.6-0.8-1.1-1.7-1.5-2.6c-0.3-0.5-0.5-0.9-0.7-1.2c-0.3-0.6-0.6-1.3-0.7-1.9c-0.1-0.4-0.2-0.7-0.4-1
	c-0.2-0.4-0.3-0.8-0.4-1.2c-0.1-0.5-0.2-1-0.4-1.5c-0.1-0.1-0.1-0.3-0.1-0.4c-0.1-0.5-0.2-1-0.3-1.5s-0.2-0.9-0.2-1.4
	c0-1.1-0.1-2.2-0.1-3.4c0-1.6,0.1-3.3,0.3-4.9c0.2-0.8,0.4-1.6,0.6-2.4L1.1,84l0.3-1.2c0-0.1,0.1-0.2,0.1-0.3
	c0.3-0.6,0.6-1.2,0.8-1.9c0.2-0.4,0.3-0.7,0.5-1.1s0.3-0.6,0.4-1c0.3-0.3,0.5-0.8,0.8-1.3c0.5-0.8,0.9-1.6,1.5-2.3
	c0.7-1.1,1.6-2.1,2.5-3.1c0.8-0.8,1.6-1.6,2.5-2.4c0.7-0.6,1.4-1.1,2.1-1.6c0.7-0.5,1.5-0.9,2.2-1.4c0.3-0.2,0.7-0.4,1-0.6
	c0.4-0.3,0.9-0.5,1.4-0.7c0.4-0.1,0.7-0.4,1.1-0.5c0.9-0.4,1.7-0.7,2.6-1c0.3-0.1,0.6-0.2,0.9-0.2c0.9-0.2,1.9-0.4,2.8-0.7
	c0.6-0.2,1.2-0.3,1.8-0.3C27.4,62.3,28.5,62.2,29.5,62.2z M55.9,92.5c0-1.1,0-2.2-0.2-3.3c-0.1-0.6-0.1-1.2-0.2-1.8
	c0-0.5-0.1-1-0.2-1.5c-0.2-0.7-0.4-1.4-0.7-2.1c-0.3-1-0.7-1.9-1.1-2.8c-0.1-0.2-0.2-0.4-0.3-0.6c-0.2-0.4-0.5-0.8-0.7-1.2
	c-0.5-1-1-1.9-1.7-2.7c-1-1.3-2.1-2.5-3.3-3.6s-2.4-2.1-3.8-3l-1.7-1c-1.3-0.8-2.8-1.4-4.3-1.7c-0.3-0.1-0.7-0.2-1-0.3
	c-0.5-0.3-1.1-0.4-1.7-0.5c-0.9-0.2-2-0.4-3.2-0.4c-0.8,0-1.7-0.1-2.5-0.1c-1.7,0.1-3.5,0.3-5.2,0.5c-0.4,0.1-0.7,0.1-1,0.3
	c-0.6,0.2-1.1,0.3-1.7,0.5c-0.6,0.2-0.9,0.3-1.3,0.5c-0.4,0.2-0.8,0.4-1.2,0.6c-0.9,0.4-1.8,0.9-2.7,1.4c-0.5,0.3-0.9,0.6-1.4,0.9
	c-0.9,0.6-1.7,1.3-2.5,2c-1.1,1-2,2.1-2.9,3.2c-0.9,1.1-1.7,2.3-2.4,3.6c-0.3,0.6-0.6,1.2-0.9,1.8c-0.2,0.4-0.3,0.8-0.5,1.1
	c-0.2,0.3-0.2,0.9-0.4,1.3c-0.2,0.6-0.4,1.2-0.5,1.8c-0.2,0.5-0.3,1-0.4,1.6c-0.1,0.7-0.2,1.3-0.2,2c0,0.7-0.1,1.4-0.2,2
	s0,1.3,0,1.9c0,0.9,0.1,1.8,0.2,2.7c0.1,1.3,0.3,2.6,0.8,3.9c0.1,0.3,0.2,0.7,0.3,1c0,0.2,0.1,0.4,0.2,0.6c0.2,0.5,0.4,1,0.6,1.5
	s0.4,1,0.7,1.6c0.1,0.3,0.3,0.6,0.4,0.8c0.4,0.6,0.7,1.3,1.1,1.9c0.4,0.6,0.9,1.3,1.4,1.9c0.3,0.3,0.5,0.7,0.8,1
	c0.7,0.8,1.5,1.5,2.2,2.2c0.4,0.4,0.8,0.8,1.3,1.1c1.3,0.9,2.6,1.8,3.9,2.6c0.4,0.3,0.9,0.4,1.4,0.6c0.2,0,0.3,0.1,0.5,0.2
	c0.5,0.3,1,0.5,1.6,0.6c0.5,0.2,1.1,0.3,1.6,0.5c0.7,0.3,1.4,0.5,2.2,0.5c0.6,0,1.1,0.1,1.7,0.2c1.6,0.3,3.3,0.3,4.9,0.1
	c1.1-0.1,2.1-0.2,3.2-0.3c0.5,0,1-0.1,1.5-0.3c0.5-0.2,1-0.4,1.5-0.5c0.9-0.3,1.8-0.6,2.7-1s1.9-0.9,2.7-1.5
	c0.7-0.4,1.4-0.9,2.1-1.4c0.6-0.4,1.1-0.8,1.7-1.2c1-0.9,1.9-1.8,2.8-2.8c0.8-1,1.5-2.1,2.2-3.2c0.3-0.5,0.5-1,0.8-1.5
	c0.4-0.7,0.7-1.4,1-2.1c0.4-1,0.8-2,1-3c0.1-0.3,0.2-0.7,0.3-1c0.1-0.3,0.2-0.6,0.2-0.9c0-0.5,0-1,0.1-1.4s0.1-0.9,0.1-1.3
	c0.1-0.6,0.2-1.1,0.2-1.7C55.8,93,55.9,92.7,55.9,92.5z"/>
<path class="st1" d="M29.7,113.2c-1.4,0-2.9-0.1-4.3-0.4h-0.1c-1-0.3-2-0.6-3-1c-0.6-0.3-1.2-0.5-1.8-0.8c-0.9-0.4-1.8-0.9-2.6-1.5
	c-0.6-0.5-1.2-1-1.8-1.4L16,108c-0.7-0.7-1.3-1.3-2-2c-0.7-0.7-1-1.2-1.4-1.8c-0.2-0.3-0.4-0.6-0.5-0.9c-0.3-0.5-0.5-1-0.8-1.5
	c-0.1-0.1-0.1-0.3-0.2-0.4c-0.2-0.6-0.5-1.2-0.7-1.8c-0.3-0.7-0.5-1.5-0.6-2.2c-0.1-0.5,0-0.9,0.2-1.3c0.2-0.5,0.7-0.9,1.3-0.9
	c0.5,0,1,0,1.4,0c0.7,0.1,1.4,0.3,2,0.6c0.9,0.4,1.8,0.6,2.8,0.6c0.7,0,1.4,0.1,2,0.3c0.5,0.1,1.1,0.3,1.7,0.3
	c0.5,0.1,1,0.1,1.5,0.1l3.3,0.2c0.6,0,1.2,0.1,1.8,0.1c0.8,0,1.6,0,2.3,0c1.9,0,3.7-0.1,5.5-0.2c0.6,0,1.2,0,1.9-0.1
	c0.9,0,1.9-0.2,2.8-0.4c0.7-0.2,1.3-0.3,2-0.3c0.9,0,1.9-0.2,2.7-0.6c0.9-0.4,1.8-0.6,2.8-0.6c0.5,0,1.1,0.2,1.5,0.4
	c0.3,0.1,0.5,0.4,0.5,0.7c0,0.5,0,1,0,1.5c-0.1,0.6-0.2,1.2-0.5,1.7c-0.2,0.4-0.3,0.8-0.4,1.2c-0.4,1.1-1,2.2-1.6,3.2
	c-0.7,1-1.4,2-2.2,2.9c-0.5,0.6-1.1,1.1-1.7,1.6c-1.1,0.9-2.2,1.7-3.5,2.4c-0.9,0.5-1.9,0.9-2.8,1.4c-0.4,0.2-0.8,0.3-1.3,0.3
	c-0.3,0-0.6,0.1-0.8,0.2c-0.8,0.3-1.6,0.5-2.4,0.5C31.7,113.2,30.7,113.2,29.7,113.2z M30.1,104.7c0.9,0,1.8-0.1,2.7-0.1
	c0.9,0,2-0.2,3-0.3c1.2-0.1,2.4-0.3,3.6-0.8c0.8-0.3,1.5-0.4,2.3-0.6c0.3-0.1,0.6-0.2,0.9-0.3s0.8-0.4,1.1-0.5
	c0.7-0.2,1.3-0.6,1.8-1.2c0.3-0.3,0.5-0.7,0.7-1.2s-0.2-1.1-0.7-1.2c-0.1,0-0.3,0-0.4,0c-0.2,0-0.5,0.1-0.7,0.2
	c-0.5,0.3-1,0.4-1.5,0.5l-1.3,0.2c-0.4,0.1-0.9,0.2-1.3,0.3c-1,0.3-2.1,0.5-3.1,0.6l-4.4,0.2c-0.6,0-1.2,0-1.8,0.1
	c-1.3,0.1-2.5,0.1-3.8,0l-3.5-0.2c-0.8,0-1.6-0.1-2.4-0.2c-0.6-0.1-1.3-0.2-1.9-0.4c-0.6-0.2-1.2-0.3-1.8-0.4
	c-0.8-0.1-1.5-0.3-2.2-0.7c-0.1,0-0.1-0.1-0.2-0.1c-0.3-0.1-0.7-0.1-1,0.1c-0.4,0.4-0.5,1-0.2,1.5c0.5,0.8,1.3,1.5,2.2,1.8
	c0.3,0.1,0.6,0.3,1,0.4c0.4,0.1,0.8,0.4,1.2,0.5c0.9,0.3,1.8,0.5,2.7,0.8c0.8,0.3,1.5,0.5,2.3,0.6c0.7,0.1,1.5,0.1,2.2,0.2
	C27.1,104.6,28.6,104.8,30.1,104.7L30.1,104.7z"/>
<path class="st1" d="M39.4,86.3c-0.8,0.1-1.5-0.2-2.1-0.7c-0.7-0.5-1.2-1.2-1.6-1.9c-0.1-0.3-0.2-0.6-0.2-1c0-0.5,0.1-1.1,0.3-1.6
	c0.1-0.2,0.2-0.4,0.4-0.5c0.5-0.4,1-0.9,1.6-1.2c0.2-0.1,0.5-0.2,0.7-0.2c0.6,0,1.2,0,1.8,0c0.3,0,0.6,0.1,0.8,0.4
	c0.4,0.3,0.8,0.7,1.2,1c0.5,0.5,0.8,1.1,0.8,1.8c0,0.3,0,0.6,0,0.9c0,0.4-0.1,0.7-0.3,1c-0.4,0.7-1,1.2-1.7,1.7
	c-0.4,0.2-0.8,0.4-1.3,0.4C39.7,86.3,39.5,86.3,39.4,86.3z"/>
<path class="st1" d="M20.5,86.3h-0.2c-0.6,0.1-1.3-0.2-1.7-0.6c-0.3-0.3-0.7-0.6-1-0.9c-0.5-0.4-0.7-1-0.7-1.7c0-0.4,0-0.8,0.1-1.2
	c0.1-0.5,0.3-1,0.6-1.3c0.4-0.4,0.8-0.7,1.2-1c0.3-0.2,0.6-0.3,1-0.4h1.3c0.5,0,0.9,0.2,1.2,0.5c0.4,0.4,0.9,0.7,1.3,1.1
	c0.3,0.3,0.5,0.6,0.5,1c0.2,0.7,0.1,1.5-0.2,2.2c-0.2,0.5-0.5,0.9-0.9,1.2c-0.3,0.3-0.6,0.5-0.9,0.8c-0.3,0.3-0.8,0.4-1.2,0.4
	C20.8,86.3,20.7,86.3,20.5,86.3L20.5,86.3z"/>
</svg>
